<svg width="638" height="182" viewBox="0 0 638 182" fill="none" xmlns="http://www.w3.org/2000/svg">
<path d="M0.35 138L41.3 47H57.94L99.02 138H81.34L46.11 55.97H52.87L17.77 138H0.35ZM19.2 116.94L23.75 103.68H72.89L77.44 116.94H19.2ZM142.267 139.3C136.461 139.3 131.087 138.173 126.147 135.92C121.294 133.667 117.307 130.417 114.187 126.17L123.807 114.6C126.321 118.067 129.051 120.667 131.997 122.4C135.031 124.133 138.324 125 141.877 125C151.324 125 156.047 119.41 156.047 108.23V61.17H123.677V47H172.947V107.32C172.947 118.067 170.304 126.083 165.017 131.37C159.817 136.657 152.234 139.3 142.267 139.3ZM212.252 138V47H254.892C265.812 47 274.132 49.1667 279.852 53.5C285.572 57.7467 288.432 63.4667 288.432 70.66C288.432 75.5133 287.305 79.6733 285.052 83.14C282.799 86.52 279.765 89.1633 275.952 91.07C272.225 92.89 268.152 93.8 263.732 93.8L266.072 89.12C271.185 89.12 275.779 90.0733 279.852 91.98C283.925 93.8 287.132 96.4867 289.472 100.04C291.899 103.593 293.112 108.013 293.112 113.3C293.112 121.1 290.122 127.167 284.142 131.5C278.162 135.833 269.279 138 257.492 138H212.252ZM229.152 124.74H256.452C262.779 124.74 267.632 123.7 271.012 121.62C274.392 119.54 276.082 116.203 276.082 111.61C276.082 107.103 274.392 103.81 271.012 101.73C267.632 99.5633 262.779 98.48 256.452 98.48H227.852V85.35H253.072C258.965 85.35 263.472 84.31 266.592 82.23C269.799 80.15 271.402 77.03 271.402 72.87C271.402 68.6233 269.799 65.46 266.592 63.38C263.472 61.3 258.965 60.26 253.072 60.26H229.152V124.74ZM314.429 138L352.779 85.22V97.96L316.249 47H335.359L362.529 84.7L354.729 84.83L381.639 47H399.969L363.699 97.05V84.83L402.309 138H382.809L354.209 97.96H361.879L333.669 138H314.429ZM428.169 138V47H442.079L499.149 117.07H492.259V47H509.029V138H495.119L438.049 67.93H444.939V138H428.169ZM591.523 139.3C584.416 139.3 577.873 138.173 571.893 135.92C566 133.58 560.843 130.33 556.423 126.17C552.003 121.923 548.58 116.94 546.153 111.22C543.726 105.5 542.513 99.26 542.513 92.5C542.513 85.74 543.726 79.5 546.153 73.78C548.58 68.06 552.003 63.12 556.423 58.96C560.93 54.7133 566.173 51.4633 572.153 49.21C578.133 46.87 584.676 45.7 591.783 45.7C599.496 45.7 606.43 46.9567 612.583 49.47C618.823 51.9833 624.066 55.6667 628.313 60.52L617.653 70.92C614.1 67.3667 610.243 64.7667 606.083 63.12C602.01 61.3867 597.503 60.52 592.563 60.52C587.796 60.52 583.376 61.3 579.303 62.86C575.23 64.42 571.72 66.63 568.773 69.49C565.826 72.35 563.53 75.73 561.883 79.63C560.323 83.53 559.543 87.82 559.543 92.5C559.543 97.0933 560.323 101.34 561.883 105.24C563.53 109.14 565.826 112.563 568.773 115.51C571.72 118.37 575.186 120.58 579.173 122.14C583.16 123.7 587.58 124.48 592.433 124.48C596.94 124.48 601.273 123.787 605.433 122.4C609.68 120.927 613.71 118.5 617.523 115.12L627.143 127.73C622.376 131.543 616.83 134.447 610.503 136.44C604.263 138.347 597.936 139.3 591.523 139.3ZM611.153 125.52V91.46H627.143V127.73L611.153 125.52Z" fill="white"/>
<rect x="589" y="107" width="16" height="38" transform="rotate(-90 589 107)" fill="white"/>
</svg>
