<svg xmlns="http://www.w3.org/2000/svg" width="24" height="24" viewBox="0 0 24 24" fill="none">
  <g clip-path="url(#clip0_755_586)">
    <path d="M22.498 14.2982C22.482 13.8842 22.843 13.5472 23.248 13.5432C23.3473 13.5423 23.4457 13.5612 23.5376 13.5988C23.6294 13.6365 23.7129 13.6921 23.7829 13.7624C23.853 13.8328 23.9083 13.9164 23.9455 14.0084C23.9828 14.1004 24.0013 14.1989 24 14.2982C23.9974 14.496 23.9172 14.6849 23.7768 14.8242C23.6363 14.9635 23.4468 15.0422 23.249 15.0432C22.854 15.0452 22.49 14.6972 22.498 14.2982ZM23.257 14.2152C23.324 14.1952 23.421 14.1732 23.419 14.0852C23.426 13.9952 23.333 13.9522 23.257 13.9512H23.094V14.2142C23.094 14.2152 23.259 14.2122 23.257 14.2152ZM23.094 14.3222V14.7402H22.954V13.8302H23.281C23.437 13.8092 23.575 13.9222 23.567 14.0832C23.5631 14.1269 23.5462 14.1684 23.5183 14.2023C23.4905 14.2362 23.4531 14.2609 23.411 14.2732C23.573 14.3562 23.519 14.5952 23.584 14.7402H23.428C23.4116 14.6725 23.3983 14.6041 23.388 14.5352C23.37 14.4422 23.341 14.3062 23.218 14.3222H23.094ZM23.854 14.2982C23.8579 14.2164 23.8452 14.1347 23.8165 14.0581C23.7879 13.9814 23.7439 13.9114 23.6873 13.8522C23.6307 13.7931 23.5626 13.7461 23.4873 13.7141C23.4119 13.6821 23.3309 13.6658 23.249 13.6662C22.911 13.6542 22.629 13.9682 22.644 14.2982C22.6432 14.4605 22.7061 14.6166 22.8193 14.733C22.9324 14.8493 23.0868 14.9165 23.249 14.9202C23.3297 14.9196 23.4095 14.9029 23.4837 14.8712C23.5579 14.8395 23.6251 14.7934 23.6814 14.7355C23.7377 14.6777 23.7819 14.6093 23.8115 14.5342C23.8412 14.4591 23.8556 14.3789 23.854 14.2982ZM18.802 13.7192L17.924 14.7272H16.618L18.177 12.9822L16.617 11.2322H17.972L18.874 12.2292L19.752 11.2312H21.058L19.515 12.9742L21.074 14.7272H19.703L18.802 13.7192ZM14.099 13.3672V12.5402H16.003V11.0342L17.727 12.9822L16.003 14.9232V13.3672H14.099ZM15.659 14.7272H12.459V9.04421H15.683V10.0682H13.77V11.2312H15.658V12.1892H13.754V13.7112H15.658V14.7272H15.659ZM9.954 14.0722C9.414 14.0892 9.076 13.5202 9.077 13.0322C9.067 12.5252 9.384 11.9092 9.955 11.9272C10.534 11.9022 10.826 12.5272 10.8 13.0302C10.823 13.5312 10.51 14.0922 9.954 14.0722ZM4.743 12.4102C4.819 12.0522 5.146 11.7402 5.523 11.7472C5.71458 11.7412 5.90181 11.8051 6.04962 11.9272C6.19743 12.0492 6.29569 12.2209 6.326 12.4102H4.743ZM19.925 12.9742L21.74 10.9272H19.615L18.875 11.7712L18.112 10.9272H14.075V10.3792H15.987V8.74121H10.84V11.3212C10.478 10.8732 9.859 10.7622 9.314 10.8292C8.532 10.9522 7.887 11.5912 7.68 12.3432C7.426 11.3852 6.501 10.7552 5.523 10.7892C4.742 10.7982 3.923 11.1542 3.536 11.8602V11.0422H1.666V10.1422H3.709V8.74221H0V15.0292H1.666V12.3852H3.332C3.29611 12.5913 3.26875 12.7988 3.25 13.0072C3.237 14.2392 4.292 15.2772 5.524 15.2432C5.98864 15.2626 6.4475 15.1345 6.83493 14.8773C7.22237 14.6201 7.51851 14.2469 7.681 13.8112H6.254C6.114 14.0792 5.813 14.1912 5.524 14.1712C5.067 14.1802 4.694 13.7542 4.695 13.3112H7.609C7.692 14.3382 8.597 15.2772 9.652 15.2582C9.88603 15.2499 10.115 15.1879 10.3213 15.0771C10.5276 14.9664 10.7058 14.8097 10.842 14.6192V15.0292H18.057L18.811 14.1692L19.565 15.0292H21.757L19.925 12.9742Z" fill="white"/>
  </g>
  <defs>
    <clipPath id="clip0_755_586">
      <rect width="24" height="24" fill="white"/>
    </clipPath>
  </defs>
</svg>