<svg width="28" height="28" viewBox="0 0 28 28" fill="none" xmlns="http://www.w3.org/2000/svg">
<g id="ph:instagram-logo-fill">
<path id="Vector" d="M17.5 14C17.5 14.6922 17.2947 15.3689 16.9101 15.9445C16.5256 16.5201 15.9789 16.9687 15.3394 17.2336C14.6999 17.4985 13.9961 17.5678 13.3172 17.4327C12.6383 17.2977 12.0146 16.9644 11.5251 16.4749C11.0356 15.9854 10.7023 15.3617 10.5673 14.6828C10.4322 14.0039 10.5015 13.3001 10.7664 12.6606C11.0313 12.0211 11.4799 11.4744 12.0555 11.0899C12.6311 10.7053 13.3078 10.5 14 10.5C14.9274 10.5029 15.8159 10.8726 16.4717 11.5283C17.1274 12.1841 17.4971 13.0726 17.5 14ZM24.9375 9.1875V18.8125C24.9375 20.437 24.2922 21.9949 23.1435 23.1435C21.9949 24.2922 20.437 24.9375 18.8125 24.9375H9.1875C7.56305 24.9375 6.00513 24.2922 4.85647 23.1435C3.70781 21.9949 3.0625 20.437 3.0625 18.8125V9.1875C3.0625 7.56305 3.70781 6.00513 4.85647 4.85647C6.00513 3.70781 7.56305 3.0625 9.1875 3.0625H18.8125C20.437 3.0625 21.9949 3.70781 23.1435 4.85647C24.2922 6.00513 24.9375 7.56305 24.9375 9.1875ZM19.25 14C19.25 12.9616 18.9421 11.9466 18.3652 11.0833C17.7883 10.2199 16.9684 9.54699 16.0091 9.14963C15.0498 8.75227 13.9942 8.64831 12.9758 8.85088C11.9574 9.05345 11.0219 9.55346 10.2877 10.2877C9.55346 11.0219 9.05345 11.9574 8.85088 12.9758C8.64831 13.9942 8.75227 15.0498 9.14963 16.0091C9.54699 16.9684 10.2199 17.7883 11.0833 18.3652C11.9466 18.9421 12.9616 19.25 14 19.25C15.3924 19.25 16.7277 18.6969 17.7123 17.7123C18.6969 16.7277 19.25 15.3924 19.25 14ZM21 8.3125C21 8.05291 20.923 7.79915 20.7788 7.58331C20.6346 7.36748 20.4296 7.19925 20.1898 7.09991C19.9499 7.00057 19.686 6.97458 19.4314 7.02522C19.1768 7.07586 18.943 7.20087 18.7594 7.38442C18.5759 7.56798 18.4509 7.80184 18.4002 8.05644C18.3496 8.31104 18.3756 8.57494 18.4749 8.81477C18.5742 9.0546 18.7425 9.25958 18.9583 9.4038C19.1742 9.54802 19.4279 9.625 19.6875 9.625C20.0356 9.625 20.3694 9.48672 20.6156 9.24058C20.8617 8.99444 21 8.6606 21 8.3125Z" fill="white"/>
</g>
</svg>
