<svg width="28" height="28" viewBox="0 0 28 28" fill="none" xmlns="http://www.w3.org/2000/svg">
<g id="akar-icons:pinterest-fill" clip-path="url(#clip0_565_469)">
<g id="Group">
<g id="Clip path group">
<mask id="mask0_565_469" style="mask-type:luminance" maskUnits="userSpaceOnUse" x="0" y="0" width="28" height="28">
<g id="akarIconsPinterestFill1">
<path id="Vector" d="M0 0H28V28H0V0Z" fill="white"/>
</g>
</mask>
<g mask="url(#mask0_565_469)">
<g id="Group_2">
<g id="Clip path group_2">
<mask id="mask1_565_469" style="mask-type:luminance" maskUnits="userSpaceOnUse" x="0" y="0" width="28" height="28">
<g id="akarIconsPinterestFill2">
<path id="Vector_2" d="M0 0H28V28H0V0Z" fill="white"/>
</g>
</mask>
<g mask="url(#mask1_565_469)">
<g id="Group_3">
<path id="Vector_3" d="M2 14C2 19.123 5.211 23.497 9.73 25.218C9.62 24.281 9.503 22.736 9.755 21.652C9.972 20.72 11.156 15.714 11.156 15.714C11.156 15.714 10.799 14.999 10.799 13.94C10.799 12.28 11.761 11.04 12.96 11.04C13.98 11.04 14.472 11.805 14.472 12.722C14.472 13.747 13.819 15.279 13.482 16.7C13.201 17.889 14.079 18.859 15.251 18.859C17.374 18.859 19.007 16.62 19.007 13.388C19.007 10.527 16.951 8.528 14.016 8.528C10.618 8.528 8.623 11.077 8.623 13.712C8.623 14.739 9.018 15.839 9.512 16.438C9.55412 16.4832 9.58387 16.5386 9.59841 16.5986C9.61295 16.6587 9.61177 16.7215 9.595 16.781C9.504 17.159 9.302 17.97 9.263 18.136C9.21 18.354 9.09 18.401 8.863 18.295C7.371 17.601 6.439 15.42 6.439 13.668C6.439 9.899 9.176 6.439 14.331 6.439C18.475 6.439 21.696 9.392 21.696 13.338C21.696 17.455 19.101 20.769 15.497 20.769C14.286 20.769 13.149 20.139 12.759 19.396C12.759 19.396 12.16 21.678 12.015 22.236C11.733 23.32 10.951 24.692 10.466 25.471C11.584 25.815 12.77 26 14 26C20.627 26 26 20.627 26 14C26 7.373 20.627 2 14 2C7.373 2 2 7.373 2 14Z" fill="white"/>
</g>
</g>
</g>
</g>
</g>
</g>
</g>
</g>
<defs>
<clipPath id="clip0_565_469">
<rect width="28" height="28" fill="white"/>
</clipPath>
</defs>
</svg>
