<svg width="28" height="28" viewBox="0 0 28 28" fill="none" xmlns="http://www.w3.org/2000/svg">
<g id="ic:baseline-tiktok">
<path id="Vector" d="M19.3659 6.79C18.5684 5.87956 18.1289 4.71034 18.1292 3.5H14.5242V17.9667C14.4964 18.7495 14.1659 19.4911 13.6023 20.0351C13.0386 20.5791 12.2859 20.8832 11.5025 20.8833C9.84587 20.8833 8.46921 19.53 8.46921 17.85C8.46921 15.8433 10.4059 14.3383 12.4009 14.9567V11.27C8.37587 10.7333 4.85254 13.86 4.85254 17.85C4.85254 21.735 8.07254 24.5 11.4909 24.5C15.1542 24.5 18.1292 21.525 18.1292 17.85V10.5117C19.591 11.5615 21.3461 12.1248 23.1459 12.1217V8.51667C23.1459 8.51667 20.9525 8.62167 19.3659 6.79Z" fill="white"/>
</g>
</svg>
