<svg xmlns="http://www.w3.org/2000/svg" width="24" height="24" viewBox="0 0 24 24" fill="none">
  <path d="M11.6689 14.544L11.6409 9.318C11.7789 9.263 12.0279 9.207 12.2489 9.207C13.2439 9.207 13.6589 9.981 13.6589 11.889C13.6589 13.742 13.1889 14.654 12.2209 14.654C12.0009 14.654 11.7799 14.599 11.6689 14.544ZM3.12486 7.438C7.32786 3.595 12.4149 2.572 17.1429 2.572C18.4429 2.572 19.6869 2.655 20.9029 2.766H20.8749V14.019C20.8749 16.203 20.1009 17.945 18.5799 19.19C17.2249 20.324 13.1329 22.149 11.9989 22.646C10.8379 22.121 6.74586 20.268 5.41786 19.19C3.92486 17.946 3.12286 16.176 3.12286 14.019V7.438H3.12486ZM15.7889 10.037C15.8169 10.949 16.0649 11.613 17.4759 12.443C18.2229 12.885 18.5269 13.19 18.5269 13.715C18.5269 14.296 18.1399 14.655 17.5039 14.655C16.9509 14.655 16.3149 14.351 15.8729 13.964V15.54C16.4259 15.844 17.0899 16.065 17.7529 16.065C19.4399 16.065 20.1859 14.876 20.2139 13.798C20.2419 12.803 19.9649 12.056 18.5549 11.227C17.9469 10.84 17.4209 10.591 17.4489 9.983C17.4489 9.402 17.9739 9.181 18.4439 9.181C19.0249 9.181 19.6049 9.513 19.9649 9.872V8.378C19.6609 8.157 19.0249 7.797 18.0849 7.825C16.9499 7.853 15.7889 8.654 15.7889 10.037ZM9.95486 19.521H11.6689L11.6409 15.927C11.8069 15.955 12.0559 16.01 12.4149 16.01C14.3229 16.01 15.4009 14.323 15.4009 11.835C15.4009 9.374 14.2949 7.826 12.2489 7.826C11.3089 7.826 10.5619 8.047 9.95386 8.434V19.521H9.95486ZM4.00986 13.355C4.00986 15.152 4.83886 16.065 6.52586 16.065C7.57686 16.065 8.43386 15.816 9.09686 15.374V7.991H7.41086V14.378C7.21686 14.516 6.94086 14.599 6.60886 14.599C5.83486 14.599 5.72386 13.88 5.72386 13.41V7.991H4.00986V13.355ZM22.1209 2.295V14.018C22.1209 16.534 21.1809 18.663 19.3559 20.129C17.8069 21.429 13.0239 23.558 12.0009 24C10.9779 23.558 6.19486 21.429 4.64586 20.157C2.84886 18.692 1.88086 16.563 1.88086 14.046V2.295C4.75686 0.747 8.07486 0 12.0009 0C15.9269 0 19.2449 0.747 22.1209 2.295ZM21.8169 2.516C19.1069 1.051 15.8169 0.332 12.0289 0.332C8.24086 0.332 4.94986 1.078 2.24086 2.516V14.018C2.24086 16.451 3.15286 18.47 4.86786 19.88C6.44386 21.18 11.4489 23.364 12.0289 23.64C12.6099 23.391 17.6139 21.207 19.1899 19.907C20.9039 18.497 21.8169 16.478 21.8169 14.045V2.516ZM19.3839 22.811C19.3839 23.281 18.9969 23.64 18.5549 23.64C18.3352 23.6395 18.1246 23.552 17.9693 23.3966C17.8139 23.2413 17.7264 23.0307 17.7259 22.811C17.7259 22.341 18.1129 21.982 18.5549 21.982C18.9959 21.982 19.3559 22.341 19.3839 22.811ZM19.2179 22.811C19.2211 22.6314 19.153 22.4579 19.0286 22.3284C18.9041 22.1989 18.7334 22.1239 18.5539 22.12C18.1949 22.12 17.8899 22.452 17.8899 22.811C17.8899 23.17 18.1939 23.475 18.5539 23.475C18.7292 23.4727 18.8968 23.402 19.0208 23.2779C19.1448 23.1539 19.2155 22.9864 19.2179 22.811ZM18.6649 22.866C18.6929 22.921 18.9689 23.308 18.9689 23.308H18.7479C18.7479 23.308 18.4719 22.921 18.4719 22.893H18.4439V23.308H18.2499V22.313L18.5539 22.285C18.8029 22.285 18.8859 22.451 18.8859 22.589C18.8859 22.727 18.8029 22.839 18.6649 22.866ZM18.6919 22.59C18.6919 22.535 18.6919 22.452 18.5259 22.452H18.4429V22.756H18.4709C18.6649 22.756 18.6919 22.673 18.6919 22.59Z" fill="white"/>
</svg>