<svg width="28" height="28" viewBox="0 0 28 28" fill="none" xmlns="http://www.w3.org/2000/svg">
<g id="carbon:logo-youtube">
<path id="Vector" d="M25.7344 8.10133C25.595 7.58336 25.322 7.1111 24.9427 6.73181C24.5634 6.35252 24.0911 6.0795 23.5732 5.94008C21.6657 5.42383 14.0007 5.42383 14.0007 5.42383C14.0007 5.42383 6.33566 5.42383 4.42816 5.94008C3.91019 6.0795 3.43793 6.35252 3.05864 6.73181C2.67935 7.1111 2.40633 7.58336 2.26691 8.10133C1.91074 10.0467 1.73789 12.0212 1.75066 13.9988C1.73789 15.9765 1.91074 17.951 2.26691 19.8963C2.40633 20.4143 2.67935 20.8866 3.05864 21.2658C3.43793 21.6451 3.91019 21.9182 4.42816 22.0576C6.33566 22.5738 14.0007 22.5738 14.0007 22.5738C14.0007 22.5738 21.6657 22.5738 23.5732 22.0576C24.0911 21.9182 24.5634 21.6451 24.9427 21.2658C25.322 20.8866 25.595 20.4143 25.7344 19.8963C26.0906 17.951 26.2634 15.9765 26.2507 13.9988C26.2634 12.0212 26.0906 10.0467 25.7344 8.10133ZM11.5507 17.6738V10.3238L17.9119 13.9988L11.5507 17.6738Z" fill="white"/>
</g>
</svg>
